<svg width="62" height="62" viewBox="0 0 62 62" fill="none" xmlns="http://www.w3.org/2000/svg">
<path d="M0 31C0 13.8792 13.8792 0 31 0C48.1208 0 62 13.8792 62 31C62 48.1208 48.1208 62 31 62C13.8792 62 0 48.1208 0 31Z" fill="#F4F4F4"/>
<path fill-rule="evenodd" clip-rule="evenodd" d="M40.3004 24.8C40.3004 29.9362 36.1366 34.1 31.0004 34.1C25.8641 34.1 21.7004 29.9362 21.7004 24.8C21.7004 19.6638 25.8641 15.5 31.0004 15.5C36.1366 15.5 40.3004 19.6638 40.3004 24.8ZM37.2004 24.8C37.2004 28.2242 34.4245 31 31.0004 31C27.5762 31 24.8004 28.2242 24.8004 24.8C24.8004 21.3758 27.5762 18.6 31.0004 18.6C34.4245 18.6 37.2004 21.3758 37.2004 24.8Z" fill="#DB0505"/>
<path d="M31.0004 38.75C20.9651 38.75 12.4148 44.684 9.15771 52.9977C9.95115 53.7856 10.787 54.5308 11.6615 55.2297C14.0868 47.5969 21.6953 41.85 31.0004 41.85C40.3055 41.85 47.914 47.5969 50.3393 55.2297C51.2138 54.5308 52.0496 53.7856 52.8431 52.9977C49.586 44.684 41.0357 38.75 31.0004 38.75Z" fill="#DB0505"/>
</svg>
